<svg width="318" height="38" viewBox="0 0 318 38" fill="none" xmlns="http://www.w3.org/2000/svg">
<path d="M62.6927 8.60185C59.9495 5.87474 56.6928 3.7114 53.1087 2.23551C49.5245 0.759618 45.6831 0 41.8036 0C37.9241 0 34.0827 0.759618 30.4985 2.23551C26.9144 3.7114 23.6577 5.87474 20.9145 8.60185L41.8036 29.3683L62.6927 8.60185Z" fill="#FFD200"/>
<path d="M41.8298 29.3982C44.573 32.1254 47.8296 34.2886 51.4138 35.7645C54.9979 37.2404 58.8394 38 62.7189 38C66.5982 38 70.4402 37.2404 74.0242 35.7645C77.6082 34.2886 80.8652 32.1254 83.6082 29.3982L62.7189 8.63167L41.8298 29.3982Z" fill="#06E07F"/>
<path d="M41.7782 29.3937C39.035 32.1208 35.7783 34.284 32.1942 35.7599C28.61 37.2358 24.7686 37.9954 20.8891 37.9954C17.0096 37.9954 13.1682 37.2358 9.584 35.7599C5.9999 34.284 2.7432 32.1208 0 29.3937L20.8891 8.62709L41.7782 29.3937Z" fill="#E3073C"/>
<path d="M62.7443 8.60645C65.4872 5.87934 68.7442 3.7161 72.3282 2.24021C75.9122 0.764318 79.7542 0.00469971 83.6332 0.00469971C87.5132 0.00469971 91.3542 0.764318 94.9382 2.24021C98.5222 3.7161 101.779 5.87934 104.522 8.60645L83.6332 29.373L62.7443 8.60645Z" fill="#1F84EF"/>
<path d="M120.344 26.4851C120.07 26.4851 119.904 26.4518 119.847 26.3851C119.79 26.3184 119.761 26.1461 119.761 25.8682V14.2137C119.761 13.9581 119.784 13.7969 119.83 13.7302C119.887 13.6635 120.047 13.6302 120.31 13.6302H126.415C126.609 13.6302 126.718 13.6635 126.741 13.7302C126.764 13.7969 126.775 13.8969 126.775 14.0303V15.3308C126.775 15.4864 126.758 15.592 126.724 15.6476C126.689 15.6921 126.586 15.7143 126.415 15.7143H122.093V18.8822H126.192C126.375 18.8822 126.478 18.9155 126.501 18.9822C126.535 19.0489 126.552 19.149 126.552 19.2823V20.5828C126.552 20.7385 126.529 20.8441 126.484 20.8996C126.449 20.9441 126.352 20.9663 126.192 20.9663H122.093V24.401H126.586C126.769 24.401 126.872 24.4288 126.895 24.4844C126.929 24.5399 126.947 24.64 126.947 24.7845V26.085C126.947 26.2295 126.929 26.3351 126.895 26.4018C126.872 26.4573 126.769 26.4851 126.586 26.4851H120.344Z" fill="#E3073C"/>
<path d="M135.078 26.2184C135.021 26.3406 134.969 26.4129 134.924 26.4351C134.889 26.4573 134.826 26.4685 134.735 26.4685H133.003C132.923 26.4685 132.86 26.4573 132.814 26.4351C132.78 26.4129 132.734 26.3406 132.677 26.2184L128.116 14.0303C128.047 13.8413 128.036 13.7302 128.081 13.6968C128.127 13.6524 128.253 13.6302 128.459 13.6302H130.122C130.248 13.6302 130.333 13.6468 130.379 13.6802C130.425 13.7024 130.471 13.7747 130.516 13.8969L133.843 23.4339L137.239 13.8969C137.284 13.7747 137.33 13.7024 137.376 13.6802C137.433 13.6468 137.525 13.6302 137.65 13.6302H139.331C139.525 13.6302 139.64 13.6524 139.674 13.6968C139.708 13.7413 139.691 13.8525 139.622 14.0303L135.078 26.2184Z" fill="#FFD200"/>
<path d="M141.646 26.4851C141.372 26.4851 141.206 26.4518 141.149 26.3851C141.092 26.3184 141.063 26.1461 141.063 25.8682V14.2137C141.063 13.9581 141.086 13.7969 141.132 13.7302C141.189 13.6635 141.349 13.6302 141.612 13.6302H147.717C147.911 13.6302 148.02 13.6635 148.043 13.7302C148.066 13.7969 148.077 13.8969 148.077 14.0303V15.3308C148.077 15.4864 148.06 15.592 148.026 15.6476C147.991 15.6921 147.888 15.7143 147.717 15.7143H143.395V18.8822H147.494C147.677 18.8822 147.78 18.9155 147.803 18.9822C147.837 19.0489 147.854 19.149 147.854 19.2823V20.5828C147.854 20.7385 147.831 20.8441 147.785 20.8996C147.751 20.9441 147.654 20.9663 147.494 20.9663H143.395V24.401H147.888C148.071 24.401 148.174 24.4288 148.197 24.4844C148.231 24.5399 148.248 24.64 148.248 24.7845V26.085C148.248 26.2295 148.231 26.3351 148.197 26.4018C148.174 26.4573 148.071 26.4851 147.888 26.4851H141.646Z" fill="#06E07F"/>
<path d="M157.7 26.4685C157.563 26.4685 157.472 26.4573 157.426 26.4351C157.392 26.4018 157.346 26.324 157.289 26.2017L154.854 21.4498H153.276V26.1183C153.276 26.2739 153.253 26.374 153.207 26.4184C153.162 26.4518 153.076 26.4685 152.95 26.4685H151.287C151.172 26.4685 151.087 26.4518 151.03 26.4184C150.972 26.374 150.944 26.2739 150.944 26.1183V13.9636C150.944 13.8302 150.972 13.7413 151.03 13.6968C151.098 13.6524 151.178 13.6302 151.27 13.6302H154.717C155.357 13.6302 155.934 13.708 156.449 13.8636C156.974 14.0192 157.42 14.2582 157.786 14.5805C158.152 14.9029 158.432 15.3086 158.626 15.7977C158.832 16.2756 158.935 16.8481 158.935 17.515C158.935 18.3153 158.758 18.9989 158.403 19.5658C158.049 20.1216 157.58 20.5606 156.997 20.883L159.775 26.035C159.867 26.2017 159.901 26.3184 159.878 26.3851C159.855 26.4407 159.758 26.4685 159.587 26.4685H157.7ZM153.276 15.681V19.4157H154.425C155.111 19.4157 155.643 19.2657 156.02 18.9656C156.397 18.6543 156.586 18.1652 156.586 17.4983C156.586 16.8981 156.431 16.4479 156.123 16.1478C155.825 15.8366 155.437 15.681 154.957 15.681H153.276Z" fill="#1F84EF"/>
<path d="M168.3 21.9C168.311 21.4332 168.265 20.9774 168.162 20.5328C168.071 20.0882 167.917 19.6881 167.699 19.3324C167.482 18.9767 167.191 18.6932 166.825 18.482C166.47 18.2597 166.03 18.1486 165.504 18.1486C165.036 18.1486 164.624 18.2486 164.27 18.4487C163.927 18.6376 163.641 18.9044 163.412 19.249C163.183 19.5936 163.012 19.9937 162.898 20.4495C162.783 20.9052 162.726 21.3887 162.726 21.9C162.726 22.4002 162.795 22.8837 162.932 23.3506C163.081 23.8063 163.275 24.2065 163.515 24.551C163.767 24.8956 164.058 25.1735 164.39 25.3847C164.733 25.5848 165.104 25.6848 165.504 25.6848C166.03 25.6848 166.47 25.5792 166.825 25.368C167.191 25.1457 167.482 24.8567 167.699 24.501C167.917 24.1453 168.071 23.7396 168.162 23.2839C168.265 22.8282 168.311 22.3669 168.3 21.9ZM161.577 13.3801C161.577 13.2244 161.657 13.1466 161.817 13.1466H162.486C162.646 13.1466 162.726 13.2244 162.726 13.3801V18.6988C163.012 18.2431 163.418 17.8818 163.944 17.615C164.47 17.3371 165.058 17.1982 165.71 17.1982C168.26 17.1982 169.534 18.7655 169.534 21.9C169.546 22.5225 169.477 23.1227 169.328 23.7007C169.191 24.2676 168.963 24.7678 168.642 25.2013C168.322 25.6348 167.917 25.9849 167.425 26.2517C166.945 26.5074 166.373 26.6352 165.71 26.6352C164.338 26.6352 163.344 26.0683 162.726 24.9345V26.235C162.726 26.3906 162.646 26.4685 162.486 26.4685H161.817C161.657 26.4685 161.577 26.3906 161.577 26.235V13.3801Z" fill="white"/>
<path d="M176.436 18.4654C176.23 18.3987 175.955 18.3653 175.613 18.3653C174.767 18.3653 174.138 18.771 173.726 19.5825C173.406 20.216 173.246 21.0275 173.246 22.0167V26.235C173.246 26.3906 173.166 26.4685 173.006 26.4685H172.337C172.177 26.4685 172.097 26.3906 172.097 26.235V19.4657C172.097 19.0656 172.091 18.7432 172.08 18.4987C172.08 18.2431 172.074 17.9707 172.063 17.6817C172.063 17.5261 172.143 17.4483 172.303 17.4483H172.937C173.097 17.4483 173.177 17.5261 173.177 17.6817V19.3157C173.738 17.9151 174.561 17.2149 175.647 17.2149C175.91 17.2149 176.173 17.2482 176.436 17.3149C176.504 17.3371 176.561 17.3761 176.607 17.4316C176.664 17.4761 176.693 17.5428 176.693 17.6317V18.332C176.693 18.3987 176.664 18.4431 176.607 18.4654C176.55 18.4876 176.493 18.4876 176.436 18.4654Z" fill="white"/>
<path d="M179.527 26.9687C179.527 27.1243 179.447 27.2021 179.287 27.2021H178.533C178.373 27.2021 178.293 27.1243 178.293 26.9687V18.4153C178.293 18.2597 178.373 18.1819 178.533 18.1819H179.287C179.447 18.1819 179.527 18.2597 179.527 18.4153V26.9687ZM178.07 15.0307C178.07 14.8084 178.15 14.6194 178.31 14.4638C178.47 14.2971 178.664 14.2137 178.893 14.2137C179.121 14.2137 179.316 14.2971 179.476 14.4638C179.647 14.6194 179.733 14.8084 179.733 15.0307C179.733 15.253 179.647 15.442 179.476 15.5976C179.316 15.7532 179.121 15.831 178.893 15.831C178.664 15.831 178.47 15.7532 178.31 15.5976C178.15 15.442 178.07 15.253 178.07 15.0307Z" fill="white"/>
<path d="M188.774 21.9167C188.774 20.7273 188.522 19.8103 188.019 19.1656C187.516 18.5209 186.836 18.1986 185.978 18.1986C185.052 18.1986 184.355 18.4987 183.886 19.0989C183.418 19.6992 183.183 20.6495 183.183 21.95C183.183 22.428 183.252 22.8671 183.389 23.2672C183.526 23.6674 183.715 24.012 183.955 24.301C184.195 24.5788 184.481 24.8011 184.812 24.9679C185.144 25.1235 185.504 25.2013 185.893 25.2013C186.293 25.2013 186.67 25.1235 187.024 24.9679C187.379 24.8011 187.682 24.5733 187.933 24.2843C188.196 23.9842 188.402 23.634 188.551 23.2339C188.699 22.8337 188.774 22.3947 188.774 21.9167ZM182.874 28.6526C182.737 28.6193 182.68 28.5359 182.703 28.4025L182.754 27.6689C182.754 27.5244 182.829 27.4911 182.977 27.5689C183.412 27.7578 183.829 27.8912 184.229 27.969C184.629 28.058 185.064 28.1024 185.533 28.1024C186.573 28.1024 187.35 27.7912 187.865 27.1687C188.391 26.5574 188.688 25.7182 188.756 24.6511C188.494 25.1513 188.105 25.5292 187.59 25.7849C187.076 26.0405 186.504 26.1683 185.876 26.1683C185.315 26.1683 184.795 26.0683 184.315 25.8682C183.835 25.6681 183.418 25.3847 183.063 25.0179C182.709 24.6511 182.429 24.2065 182.223 23.684C182.017 23.1616 181.914 22.5836 181.914 21.95C181.914 21.2053 181.983 20.5439 182.12 19.9659C182.269 19.3768 182.497 18.8822 182.806 18.482C183.115 18.0819 183.515 17.7762 184.006 17.565C184.498 17.3538 185.092 17.2482 185.79 17.2482C186.396 17.2482 186.927 17.3483 187.385 17.5483C187.853 17.7373 188.328 18.0819 188.808 18.5821L188.774 17.6817C188.774 17.5261 188.854 17.4483 189.014 17.4483H189.665C189.825 17.4483 189.905 17.5261 189.905 17.6817V24.351C189.905 25.0735 189.808 25.7293 189.614 26.3184C189.431 26.8964 189.151 27.3855 188.774 27.7856C188.408 28.1969 187.951 28.5081 187.402 28.7193C186.853 28.9416 186.224 29.0528 185.515 29.0528C185.001 29.0528 184.549 29.0194 184.161 28.9528C183.772 28.8972 183.343 28.7971 182.874 28.6526Z" fill="white"/>
<path d="M200.202 26.235C200.202 26.3906 200.122 26.4685 199.962 26.4685H199.276C199.116 26.4685 199.036 26.3906 199.036 26.235V21.0997C199.036 20.5662 198.985 20.116 198.882 19.7492C198.79 19.3713 198.653 19.0712 198.47 18.8488C198.287 18.6154 198.064 18.4487 197.802 18.3486C197.539 18.2486 197.247 18.1986 196.927 18.1986C195.989 18.1986 195.269 18.4153 194.766 18.8488C194.275 19.2823 194.029 19.8826 194.029 20.6495V26.235C194.029 26.3906 193.949 26.4685 193.789 26.4685H193.103C192.943 26.4685 192.863 26.3906 192.863 26.235V13.4301C192.863 13.2745 192.943 13.1967 193.103 13.1967H193.789C193.949 13.1967 194.029 13.2745 194.029 13.4301V18.2653C194.349 17.9096 194.743 17.6539 195.212 17.4983C195.692 17.3316 196.287 17.2482 196.996 17.2482C198.104 17.2482 198.916 17.565 199.431 18.1986C199.945 18.8322 200.202 19.7937 200.202 21.083V26.235Z" fill="white"/>
<path d="M207.584 26.4851C207.104 26.6519 206.629 26.7352 206.161 26.7352C205.235 26.7352 204.623 26.4407 204.326 25.8516C204.131 25.4514 204.034 24.7456 204.034 23.7341V18.4153H202.422C202.262 18.4153 202.182 18.3375 202.182 18.1819V17.6817C202.182 17.5261 202.262 17.4483 202.422 17.4483H204.034V15.1974C204.034 15.0307 204.108 14.9473 204.257 14.9473H204.977C205.126 14.9473 205.2 15.0307 205.2 15.1974V17.4483H207.104C207.264 17.4483 207.344 17.5261 207.344 17.6817V18.1819C207.344 18.3375 207.264 18.4153 207.104 18.4153H205.2V24.301C205.2 25.2902 205.612 25.7849 206.435 25.7849C206.755 25.7849 207.115 25.7182 207.515 25.5848C207.573 25.5626 207.624 25.5626 207.67 25.5848C207.727 25.607 207.755 25.6515 207.755 25.7182L207.79 26.1517C207.813 26.3073 207.744 26.4184 207.584 26.4851Z" fill="white"/>
<path d="M214.179 26.3017C213.996 26.2461 213.921 26.1461 213.956 26.0016L214.024 25.2346C214.047 25.1457 214.081 25.0846 214.127 25.0512C214.184 25.0179 214.247 25.0235 214.316 25.0679C214.716 25.2791 215.116 25.4347 215.516 25.5348C215.928 25.6237 216.396 25.6681 216.922 25.6681C217.757 25.6681 218.437 25.4458 218.963 25.0012C219.5 24.5566 219.769 23.9286 219.769 23.1172C219.769 22.7948 219.638 22.4725 219.375 22.1501C219.123 21.8278 218.769 21.5221 218.311 21.2331C217.911 20.9886 217.46 20.7329 216.957 20.4661C216.454 20.1994 215.973 19.9104 215.516 19.5991C215.059 19.2768 214.676 18.9211 214.367 18.5321C214.059 18.1319 213.904 17.6706 213.904 17.1482C213.904 16.6146 214.019 16.1478 214.247 15.7476C214.476 15.3364 214.779 14.9974 215.156 14.7306C215.545 14.4527 215.985 14.2415 216.477 14.097C216.968 13.9525 217.471 13.8803 217.986 13.8803C218.431 13.8803 218.826 13.908 219.169 13.9636C219.512 14.0081 219.883 14.0914 220.284 14.2137C220.455 14.2693 220.524 14.3693 220.489 14.5138L220.352 15.1641C220.318 15.353 220.221 15.4031 220.061 15.3141C219.74 15.1696 219.426 15.0752 219.117 15.0307C218.82 14.9751 218.437 14.9473 217.968 14.9473C217.591 14.9473 217.231 14.9918 216.888 15.0807C216.557 15.1696 216.265 15.303 216.013 15.4809C215.773 15.6587 215.579 15.881 215.43 16.1478C215.282 16.4146 215.207 16.7314 215.207 17.0982C215.207 17.3872 215.305 17.6595 215.499 17.9151C215.705 18.1708 215.951 18.4098 216.236 18.6321C216.534 18.8544 216.848 19.06 217.18 19.249C217.523 19.4268 217.831 19.5936 218.106 19.7492C218.483 19.9604 218.849 20.1771 219.203 20.3994C219.558 20.6218 219.872 20.8718 220.146 21.1497C220.421 21.4276 220.644 21.7333 220.815 22.0668C220.987 22.4002 221.072 22.7837 221.072 23.2172C221.072 23.773 220.952 24.2676 220.712 24.7011C220.484 25.1346 220.175 25.5014 219.786 25.8015C219.398 26.1016 218.946 26.3295 218.431 26.4851C217.928 26.6519 217.403 26.7352 216.854 26.7352C216.351 26.7352 215.899 26.7019 215.499 26.6352C215.11 26.5685 214.67 26.4573 214.179 26.3017Z" fill="white"/>
<path d="M229.594 26.5351C229.251 26.5907 228.919 26.6296 228.599 26.6519C228.279 26.6741 227.896 26.6852 227.45 26.6852C226.742 26.6852 226.107 26.5629 225.547 26.3184C224.998 26.0739 224.529 25.7404 224.141 25.318C223.763 24.8956 223.472 24.3954 223.266 23.8174C223.06 23.2394 222.957 22.617 222.957 21.95C222.957 21.272 223.066 20.6495 223.283 20.0827C223.5 19.5047 223.809 19.01 224.209 18.5987C224.621 18.1764 225.107 17.8485 225.667 17.615C226.239 17.3705 226.879 17.2482 227.588 17.2482C227.965 17.2482 228.308 17.2649 228.616 17.2982C228.925 17.3205 229.257 17.3705 229.611 17.4483C229.771 17.4928 229.845 17.5984 229.834 17.7651L229.783 18.2986C229.76 18.432 229.674 18.482 229.525 18.4487C229.228 18.3598 228.942 18.2986 228.668 18.2653C228.394 18.2208 228.091 18.1986 227.759 18.1986C227.176 18.1986 226.662 18.2931 226.216 18.482C225.781 18.6599 225.415 18.9155 225.118 19.249C224.821 19.5825 224.598 19.9826 224.449 20.4495C224.301 20.9052 224.226 21.4054 224.226 21.95C224.226 22.4502 224.301 22.9282 224.449 23.3839C224.609 23.8397 224.832 24.2454 225.118 24.6011C225.415 24.9456 225.77 25.2235 226.181 25.4347C226.604 25.6348 227.085 25.7348 227.622 25.7348C228.022 25.7348 228.354 25.7182 228.616 25.6848C228.879 25.6515 229.177 25.5903 229.508 25.5014C229.68 25.457 229.771 25.4959 229.783 25.6181L229.834 26.235C229.845 26.4018 229.765 26.5018 229.594 26.5351Z" fill="white"/>
<path d="M239.289 26.235C239.289 26.3906 239.209 26.4685 239.049 26.4685H238.363C238.203 26.4685 238.123 26.3906 238.123 26.235V21.0997C238.123 20.5662 238.072 20.116 237.969 19.7492C237.878 19.3713 237.74 19.0712 237.557 18.8488C237.374 18.6154 237.152 18.4487 236.889 18.3486C236.626 18.2486 236.334 18.1986 236.014 18.1986C235.077 18.1986 234.356 18.4153 233.853 18.8488C233.362 19.2823 233.116 19.8826 233.116 20.6495V26.235C233.116 26.3906 233.036 26.4685 232.876 26.4685H232.19C232.03 26.4685 231.95 26.3906 231.95 26.235V13.4301C231.95 13.2745 232.03 13.1967 232.19 13.1967H232.876C233.036 13.1967 233.116 13.2745 233.116 13.4301V18.2653C233.436 17.9096 233.83 17.6539 234.299 17.4983C234.779 17.3316 235.374 17.2482 236.083 17.2482C237.192 17.2482 238.003 17.565 238.518 18.1986C239.032 18.8322 239.289 19.7937 239.289 21.083V26.235Z" fill="white"/>
<path d="M249.14 21.9667C249.14 21.4443 249.066 20.9552 248.918 20.4995C248.78 20.0437 248.586 19.638 248.334 19.2823C247.74 18.571 246.968 18.2153 246.019 18.2153C245.539 18.2153 245.105 18.3097 244.716 18.4987C244.339 18.6766 244.002 18.9378 243.704 19.2823C243.441 19.638 243.236 20.0437 243.087 20.4995C242.95 20.9552 242.881 21.4443 242.881 21.9667C242.881 22.5003 242.95 22.9949 243.087 23.4506C243.236 23.9064 243.441 24.3065 243.704 24.6511C244.31 25.3736 245.082 25.7348 246.019 25.7348C246.5 25.7348 246.928 25.6404 247.306 25.4514C247.694 25.2624 248.037 24.9957 248.334 24.6511C248.586 24.3065 248.78 23.9064 248.918 23.4506C249.066 22.9949 249.14 22.5003 249.14 21.9667ZM250.409 21.9667C250.409 22.6225 250.312 23.2339 250.118 23.8008C249.924 24.3565 249.666 24.8456 249.346 25.268C248.946 25.7348 248.466 26.0961 247.906 26.3517C247.357 26.6074 246.728 26.7352 246.019 26.7352C245.311 26.7352 244.676 26.6074 244.116 26.3517C243.556 26.0961 243.076 25.7348 242.675 25.268C242.355 24.8456 242.098 24.3565 241.904 23.8008C241.721 23.2339 241.629 22.6225 241.629 21.9667C241.629 20.6218 241.978 19.5213 242.675 18.6654C243.476 17.6984 244.59 17.2149 246.019 17.2149C246.74 17.2149 247.374 17.3371 247.923 17.5817C248.472 17.8151 248.946 18.1764 249.346 18.6654C250.055 19.5436 250.409 20.644 250.409 21.9667Z" fill="white"/>
<path d="M259.54 21.9667C259.54 21.4443 259.466 20.9552 259.317 20.4995C259.18 20.0437 258.986 19.638 258.734 19.2823C258.14 18.571 257.368 18.2153 256.419 18.2153C255.939 18.2153 255.505 18.3097 255.116 18.4987C254.739 18.6766 254.401 18.9378 254.104 19.2823C253.841 19.638 253.635 20.0437 253.487 20.4995C253.35 20.9552 253.281 21.4443 253.281 21.9667C253.281 22.5003 253.35 22.9949 253.487 23.4506C253.635 23.9064 253.841 24.3065 254.104 24.6511C254.71 25.3736 255.482 25.7348 256.419 25.7348C256.899 25.7348 257.328 25.6404 257.705 25.4514C258.094 25.2624 258.437 24.9957 258.734 24.6511C258.986 24.3065 259.18 23.9064 259.317 23.4506C259.466 22.9949 259.54 22.5003 259.54 21.9667ZM260.809 21.9667C260.809 22.6225 260.712 23.2339 260.518 23.8008C260.323 24.3565 260.066 24.8456 259.746 25.268C259.346 25.7348 258.866 26.0961 258.306 26.3517C257.757 26.6074 257.128 26.7352 256.419 26.7352C255.71 26.7352 255.076 26.6074 254.516 26.3517C253.955 26.0961 253.475 25.7348 253.075 25.268C252.755 24.8456 252.498 24.3565 252.303 23.8008C252.121 23.2339 252.029 22.6225 252.029 21.9667C252.029 20.6218 252.378 19.5213 253.075 18.6654C253.875 17.6984 254.99 17.2149 256.419 17.2149C257.139 17.2149 257.774 17.3371 258.323 17.5817C258.871 17.8151 259.346 18.1764 259.746 18.6654C260.455 19.5436 260.809 20.644 260.809 21.9667Z" fill="white"/>
<path d="M264.384 26.235C264.384 26.3906 264.304 26.4685 264.144 26.4685H263.389C263.229 26.4685 263.149 26.3906 263.149 26.235V13.4468C263.149 13.2911 263.229 13.2133 263.389 13.2133H264.144C264.304 13.2133 264.384 13.2911 264.384 13.4468V26.235Z" fill="white"/>
<path d="M280.786 25.268C280.854 25.2458 280.917 25.2458 280.975 25.268C281.032 25.2791 281.06 25.318 281.06 25.3847L281.095 26.035C281.106 26.1795 281.026 26.2795 280.855 26.3351C280.477 26.4573 280.089 26.5463 279.688 26.6018C279.288 26.6574 278.785 26.6852 278.179 26.6852C276.19 26.6852 274.607 26.0961 273.429 24.9179C272.846 24.3399 272.412 23.6674 272.126 22.9004C271.851 22.1334 271.714 21.2664 271.714 20.2994C271.714 18.3987 272.303 16.8592 273.481 15.681C274.681 14.5027 276.247 13.9136 278.179 13.9136C278.454 13.9136 278.699 13.9192 278.917 13.9303C279.145 13.9414 279.363 13.9581 279.568 13.9803C279.786 14.0025 279.997 14.0303 280.203 14.0637C280.409 14.097 280.626 14.1415 280.855 14.197C281.026 14.2304 281.106 14.336 281.095 14.5138L281.06 15.1808C281.037 15.3364 280.952 15.3864 280.803 15.3308C280.357 15.1863 279.934 15.0918 279.534 15.0474C279.134 14.9918 278.682 14.964 278.179 14.964C276.567 14.964 275.281 15.4642 274.321 16.4646C273.429 17.4316 272.983 18.7099 272.983 20.2994C272.983 21.0997 273.092 21.8222 273.309 22.4669C273.526 23.1116 273.858 23.6729 274.304 24.1509C275.23 25.1513 276.522 25.6459 278.179 25.6348C278.659 25.6237 279.134 25.5903 279.603 25.5348C280.083 25.4792 280.477 25.3903 280.786 25.268Z" fill="white"/>
<path d="M291.107 22.1001C290.627 20.9441 290.164 19.8048 289.718 18.6821C289.284 17.5483 288.827 16.4035 288.346 15.2474C287.866 16.4035 287.392 17.5483 286.923 18.6821C286.466 19.8048 285.997 20.9441 285.517 22.1001H291.107ZM294.091 26.235C294.148 26.3906 294.097 26.4685 293.937 26.4685H293.114C293.045 26.4685 292.982 26.4573 292.925 26.4351C292.879 26.4129 292.834 26.3462 292.788 26.235L291.519 23.1672H285.071C284.854 23.6896 284.642 24.2009 284.436 24.7011C284.231 25.2013 284.025 25.7126 283.819 26.235C283.773 26.3462 283.722 26.4129 283.665 26.4351C283.619 26.4573 283.562 26.4685 283.493 26.4685H282.687C282.527 26.4685 282.476 26.3906 282.533 26.235L287.575 14.2971C287.632 14.1637 287.735 14.097 287.883 14.097H288.929C289.078 14.097 289.181 14.1637 289.238 14.2971L294.091 26.235Z" fill="white"/>
<path d="M302.555 17.615C302.555 16.8258 302.344 16.22 301.921 15.7977C301.498 15.3642 300.875 15.1474 300.051 15.1474H297.479V20.1327H298.868C299.417 20.1327 299.909 20.1049 300.343 20.0493C300.789 19.9937 301.166 19.877 301.475 19.6992C301.795 19.5213 302.046 19.2712 302.229 18.9489C302.412 18.6154 302.521 18.1708 302.555 17.615ZM297.479 26.235C297.479 26.3906 297.399 26.4685 297.239 26.4685H296.467C296.307 26.4685 296.227 26.3906 296.227 26.235V14.5972C296.227 14.3527 296.25 14.2082 296.296 14.1637C296.353 14.1192 296.502 14.097 296.742 14.097H299.794C301.052 14.097 302.035 14.3916 302.744 14.9807C303.475 15.592 303.841 16.4701 303.841 17.615C303.841 18.193 303.733 18.7099 303.515 19.1656C303.31 19.6102 303.018 19.9882 302.641 20.2994C302.264 20.5995 301.818 20.8274 301.303 20.983C300.789 21.1386 300.24 21.2053 299.657 21.1831H297.479V26.235Z" fill="white"/>
<path d="M305.867 26.3017C305.684 26.2461 305.61 26.1461 305.644 26.0016L305.713 25.2346C305.736 25.1457 305.77 25.0846 305.816 25.0512C305.873 25.0179 305.936 25.0235 306.005 25.0679C306.405 25.2791 306.805 25.4347 307.205 25.5348C307.617 25.6237 308.085 25.6681 308.611 25.6681C309.446 25.6681 310.126 25.4458 310.652 25.0012C311.189 24.5566 311.458 23.9286 311.458 23.1172C311.458 22.7948 311.326 22.4725 311.063 22.1501C310.812 21.8278 310.458 21.5221 310 21.2331C309.6 20.9886 309.149 20.7329 308.646 20.4661C308.142 20.1994 307.662 19.9104 307.205 19.5991C306.748 19.2768 306.365 18.9211 306.056 18.5321C305.747 18.1319 305.593 17.6706 305.593 17.1482C305.593 16.6146 305.707 16.1478 305.936 15.7476C306.165 15.3364 306.468 14.9974 306.845 14.7306C307.234 14.4527 307.674 14.2415 308.165 14.097C308.657 13.9525 309.16 13.8803 309.674 13.8803C310.12 13.8803 310.515 13.908 310.858 13.9636C311.201 14.0081 311.572 14.0914 311.972 14.2137C312.144 14.2693 312.212 14.3693 312.178 14.5138L312.041 15.1641C312.007 15.353 311.909 15.4031 311.749 15.3141C311.429 15.1696 311.115 15.0752 310.806 15.0307C310.509 14.9751 310.126 14.9473 309.657 14.9473C309.28 14.9473 308.92 14.9918 308.577 15.0807C308.245 15.1696 307.954 15.303 307.702 15.4809C307.462 15.6587 307.268 15.881 307.119 16.1478C306.971 16.4146 306.896 16.7314 306.896 17.0982C306.896 17.3872 306.994 17.6595 307.188 17.9151C307.394 18.1708 307.639 18.4098 307.925 18.6321C308.223 18.8544 308.537 19.06 308.868 19.249C309.211 19.4268 309.52 19.5936 309.794 19.7492C310.172 19.9604 310.538 20.1771 310.892 20.3994C311.246 20.6218 311.561 20.8718 311.835 21.1497C312.11 21.4276 312.332 21.7333 312.504 22.0668C312.675 22.4002 312.761 22.7837 312.761 23.2172C312.761 23.773 312.641 24.2676 312.401 24.7011C312.172 25.1346 311.864 25.5014 311.475 25.8015C311.086 26.1016 310.635 26.3295 310.12 26.4851C309.617 26.6519 309.091 26.7352 308.543 26.7352C308.04 26.7352 307.588 26.7019 307.188 26.6352C306.799 26.5685 306.359 26.4573 305.867 26.3017Z" fill="white"/>
</svg>
