<svg width="458" height="39" viewBox="0 0 458 39" fill="none" xmlns="http://www.w3.org/2000/svg">
<path d="M62.9315 9.4284C60.1883 6.6852 56.9316 4.5091 53.3475 3.0245C49.7633 1.5399 45.9219 0.775803 42.0424 0.775803C38.1629 0.775803 34.3215 1.5399 30.7373 3.0245C27.1532 4.5091 23.8965 6.6852 21.1533 9.4284L42.0424 30.3174L62.9315 9.4284Z" fill="#FFD200"/>
<path d="M42.0686 30.3475C44.8118 33.0907 48.0684 35.2667 51.6526 36.7513C55.2367 38.2359 59.0782 39 62.9577 39C66.837 39 70.679 38.2359 74.263 36.7513C77.847 35.2667 81.104 33.0907 83.847 30.3475L62.9577 9.4584L42.0686 30.3475Z" fill="#06E07F"/>
<path d="M42.017 30.3429C39.2738 33.0861 36.0171 35.2621 32.433 36.7467C28.8488 38.2313 25.0074 38.9954 21.1279 38.9954C17.2484 38.9954 13.407 38.2313 9.8228 36.7467C6.2387 35.2621 2.982 33.0861 0.2388 30.3429L21.1279 9.4538L42.017 30.3429Z" fill="#E3073C"/>
<path d="M62.9831 9.433C65.726 6.6898 68.983 4.5138 72.567 3.0292C76.151 1.5446 79.993 0.780502 83.872 0.780502C87.752 0.780502 91.593 1.5446 95.177 3.0292C98.761 4.5138 102.018 6.6898 104.761 9.433L83.872 30.3221L62.9831 9.433Z" fill="#1F84EF"/>
<path d="M120.69 32C120.21 32 119.92 31.94 119.82 31.82C119.72 31.7 119.67 31.39 119.67 30.89V9.92C119.67 9.46 119.71 9.17 119.79 9.05C119.89 8.93 120.17 8.87 120.63 8.87H131.31C131.65 8.87 131.84 8.93 131.88 9.05C131.92 9.17 131.94 9.35 131.94 9.59V11.93C131.94 12.21 131.91 12.4 131.85 12.5C131.79 12.58 131.61 12.62 131.31 12.62H123.75V18.32H130.92C131.24 18.32 131.42 18.38 131.46 18.5C131.52 18.62 131.55 18.8 131.55 19.04V21.38C131.55 21.66 131.51 21.85 131.43 21.95C131.37 22.03 131.2 22.07 130.92 22.07H123.75V28.25H131.61C131.93 28.25 132.11 28.3 132.15 28.4C132.21 28.5 132.24 28.68 132.24 28.94V31.28C132.24 31.54 132.21 31.73 132.15 31.85C132.11 31.95 131.93 32 131.61 32H120.69Z" fill="#E3073C"/>
<path d="M146.465 31.52C146.365 31.74 146.275 31.87 146.195 31.91C146.135 31.95 146.025 31.97 145.865 31.97H142.835C142.695 31.97 142.585 31.95 142.505 31.91C142.445 31.87 142.365 31.74 142.265 31.52L134.285 9.59C134.165 9.25 134.145 9.05 134.225 8.99C134.305 8.91 134.525 8.87 134.885 8.87H137.795C138.015 8.87 138.165 8.9 138.245 8.96C138.325 9 138.405 9.13 138.485 9.35L144.305 26.51L150.245 9.35C150.325 9.13 150.405 9 150.485 8.96C150.585 8.9 150.745 8.87 150.965 8.87H153.905C154.245 8.87 154.445 8.91 154.505 8.99C154.565 9.07 154.535 9.27 154.415 9.59L146.465 31.52Z" fill="#FFD200"/>
<path d="M157.956 32C157.476 32 157.186 31.94 157.086 31.82C156.986 31.7 156.936 31.39 156.936 30.89V9.92C156.936 9.46 156.976 9.17 157.056 9.05C157.156 8.93 157.436 8.87 157.896 8.87H168.576C168.916 8.87 169.106 8.93 169.146 9.05C169.186 9.17 169.206 9.35 169.206 9.59V11.93C169.206 12.21 169.176 12.4 169.116 12.5C169.056 12.58 168.876 12.62 168.576 12.62H161.016V18.32H168.186C168.506 18.32 168.686 18.38 168.726 18.5C168.786 18.62 168.816 18.8 168.816 19.04V21.38C168.816 21.66 168.776 21.85 168.696 21.95C168.636 22.03 168.466 22.07 168.186 22.07H161.016V28.25H168.876C169.196 28.25 169.376 28.3 169.416 28.4C169.476 28.5 169.506 28.68 169.506 28.94V31.28C169.506 31.54 169.476 31.73 169.416 31.85C169.376 31.95 169.196 32 168.876 32H157.956Z" fill="#06E07F"/>
<path d="M186.041 31.97C185.801 31.97 185.641 31.95 185.561 31.91C185.501 31.85 185.421 31.71 185.321 31.49L181.061 22.94H178.301V31.34C178.301 31.62 178.261 31.8 178.181 31.88C178.101 31.94 177.951 31.97 177.731 31.97H174.821C174.621 31.97 174.471 31.94 174.371 31.88C174.271 31.8 174.221 31.62 174.221 31.34V9.47C174.221 9.23 174.271 9.07 174.371 8.99C174.491 8.91 174.631 8.87 174.791 8.87H180.821C181.941 8.87 182.951 9.01 183.851 9.29C184.771 9.57 185.551 10 186.191 10.58C186.831 11.16 187.321 11.89 187.661 12.77C188.021 13.63 188.201 14.66 188.201 15.86C188.201 17.3 187.891 18.53 187.271 19.55C186.651 20.55 185.831 21.34 184.811 21.92L189.671 31.19C189.831 31.49 189.891 31.7 189.851 31.82C189.811 31.92 189.641 31.97 189.341 31.97H186.041ZM178.301 12.56V19.28H180.311C181.511 19.28 182.441 19.01 183.101 18.47C183.761 17.91 184.091 17.03 184.091 15.83C184.091 14.75 183.821 13.94 183.281 13.4C182.761 12.84 182.081 12.56 181.241 12.56H178.301Z" fill="#1F84EF"/>
<path d="M204.583 23.75C204.603 22.91 204.523 22.09 204.343 21.29C204.183 20.49 203.913 19.77 203.533 19.13C203.153 18.49 202.643 17.98 202.003 17.6C201.383 17.2 200.613 17 199.693 17C198.873 17 198.153 17.18 197.533 17.54C196.933 17.88 196.433 18.36 196.033 18.98C195.633 19.6 195.333 20.32 195.133 21.14C194.933 21.96 194.833 22.83 194.833 23.75C194.833 24.65 194.953 25.52 195.193 26.36C195.453 27.18 195.793 27.9 196.213 28.52C196.653 29.14 197.163 29.64 197.743 30.02C198.343 30.38 198.993 30.56 199.693 30.56C200.613 30.56 201.383 30.37 202.003 29.99C202.643 29.59 203.153 29.07 203.533 28.43C203.913 27.79 204.183 27.06 204.343 26.24C204.523 25.42 204.603 24.59 204.583 23.75ZM192.823 8.42C192.823 8.14 192.963 8 193.243 8H194.413C194.693 8 194.833 8.14 194.833 8.42V17.99C195.333 17.17 196.043 16.52 196.963 16.04C197.883 15.54 198.913 15.29 200.053 15.29C204.513 15.29 206.743 18.11 206.743 23.75C206.763 24.87 206.643 25.95 206.383 26.99C206.143 28.01 205.743 28.91 205.183 29.69C204.623 30.47 203.913 31.1 203.053 31.58C202.213 32.04 201.213 32.27 200.053 32.27C197.653 32.27 195.913 31.25 194.833 29.21V31.55C194.833 31.83 194.693 31.97 194.413 31.97H193.243C192.963 31.97 192.823 31.83 192.823 31.55V8.42Z" fill="white"/>
<path d="M218.816 17.57C218.456 17.45 217.976 17.39 217.376 17.39C215.896 17.39 214.796 18.12 214.076 19.58C213.516 20.72 213.236 22.18 213.236 23.96V31.55C213.236 31.83 213.096 31.97 212.816 31.97H211.646C211.366 31.97 211.226 31.83 211.226 31.55V19.37C211.226 18.65 211.216 18.07 211.196 17.63C211.196 17.17 211.186 16.68 211.166 16.16C211.166 15.88 211.306 15.74 211.586 15.74H212.696C212.976 15.74 213.116 15.88 213.116 16.16V19.1C214.096 16.58 215.536 15.32 217.436 15.32C217.896 15.32 218.356 15.38 218.816 15.5C218.936 15.54 219.036 15.61 219.116 15.71C219.216 15.79 219.266 15.91 219.266 16.07V17.33C219.266 17.45 219.216 17.53 219.116 17.57C219.016 17.61 218.916 17.61 218.816 17.57Z" fill="white"/>
<path d="M224.225 32.87C224.225 33.15 224.085 33.29 223.805 33.29H222.485C222.205 33.29 222.065 33.15 222.065 32.87V17.48C222.065 17.2 222.205 17.06 222.485 17.06H223.805C224.085 17.06 224.225 17.2 224.225 17.48V32.87ZM221.675 11.39C221.675 10.99 221.815 10.65 222.095 10.37C222.375 10.07 222.715 9.92 223.115 9.92C223.515 9.92 223.855 10.07 224.135 10.37C224.435 10.65 224.585 10.99 224.585 11.39C224.585 11.79 224.435 12.13 224.135 12.41C223.855 12.69 223.515 12.83 223.115 12.83C222.715 12.83 222.375 12.69 222.095 12.41C221.815 12.13 221.675 11.79 221.675 11.39Z" fill="white"/>
<path d="M240.4 23.78C240.4 21.64 239.96 19.99 239.08 18.83C238.2 17.67 237.01 17.09 235.51 17.09C233.89 17.09 232.67 17.63 231.85 18.71C231.03 19.79 230.62 21.5 230.62 23.84C230.62 24.7 230.74 25.49 230.98 26.21C231.22 26.93 231.55 27.55 231.97 28.07C232.39 28.57 232.89 28.97 233.47 29.27C234.05 29.55 234.68 29.69 235.36 29.69C236.06 29.69 236.72 29.55 237.34 29.27C237.96 28.97 238.49 28.56 238.93 28.04C239.39 27.5 239.75 26.87 240.01 26.15C240.27 25.43 240.4 24.64 240.4 23.78ZM230.08 35.9C229.84 35.84 229.74 35.69 229.78 35.45L229.87 34.13C229.87 33.87 230 33.81 230.26 33.95C231.02 34.29 231.75 34.53 232.45 34.67C233.15 34.83 233.91 34.91 234.73 34.91C236.55 34.91 237.91 34.35 238.81 33.23C239.73 32.13 240.25 30.62 240.37 28.7C239.91 29.6 239.23 30.28 238.33 30.74C237.43 31.2 236.43 31.43 235.33 31.43C234.35 31.43 233.44 31.25 232.6 30.89C231.76 30.53 231.03 30.02 230.41 29.36C229.79 28.7 229.3 27.9 228.94 26.96C228.58 26.02 228.4 24.98 228.4 23.84C228.4 22.5 228.52 21.31 228.76 20.27C229.02 19.21 229.42 18.32 229.96 17.6C230.5 16.88 231.2 16.33 232.06 15.95C232.92 15.57 233.96 15.38 235.18 15.38C236.24 15.38 237.17 15.56 237.97 15.92C238.79 16.26 239.62 16.88 240.46 17.78L240.4 16.16C240.4 15.88 240.54 15.74 240.82 15.74H241.96C242.24 15.74 242.38 15.88 242.38 16.16V28.16C242.38 29.46 242.21 30.64 241.87 31.7C241.55 32.74 241.06 33.62 240.4 34.34C239.76 35.08 238.96 35.64 238 36.02C237.04 36.42 235.94 36.62 234.7 36.62C233.8 36.62 233.01 36.56 232.33 36.44C231.65 36.34 230.9 36.16 230.08 35.9Z" fill="white"/>
<path d="M260.394 31.55C260.394 31.83 260.254 31.97 259.974 31.97H258.774C258.494 31.97 258.354 31.83 258.354 31.55V22.31C258.354 21.35 258.264 20.54 258.084 19.88C257.924 19.2 257.684 18.66 257.364 18.26C257.044 17.84 256.654 17.54 256.194 17.36C255.734 17.18 255.224 17.09 254.664 17.09C253.024 17.09 251.764 17.48 250.884 18.26C250.024 19.04 249.594 20.12 249.594 21.5V31.55C249.594 31.83 249.454 31.97 249.174 31.97H247.974C247.694 31.97 247.554 31.83 247.554 31.55V8.51C247.554 8.23 247.694 8.09 247.974 8.09H249.174C249.454 8.09 249.594 8.23 249.594 8.51V17.21C250.154 16.57 250.844 16.11 251.664 15.83C252.504 15.53 253.544 15.38 254.784 15.38C256.724 15.38 258.144 15.95 259.044 17.09C259.944 18.23 260.394 19.96 260.394 22.28V31.55Z" fill="white"/>
<path d="M273.307 32C272.467 32.3 271.637 32.45 270.817 32.45C269.197 32.45 268.127 31.92 267.607 30.86C267.267 30.14 267.097 28.87 267.097 27.05V17.48H264.277C263.997 17.48 263.857 17.34 263.857 17.06V16.16C263.857 15.88 263.997 15.74 264.277 15.74H267.097V11.69C267.097 11.39 267.227 11.24 267.487 11.24H268.747C269.007 11.24 269.137 11.39 269.137 11.69V15.74H272.467C272.747 15.74 272.887 15.88 272.887 16.16V17.06C272.887 17.34 272.747 17.48 272.467 17.48H269.137V28.07C269.137 29.85 269.857 30.74 271.297 30.74C271.857 30.74 272.487 30.62 273.187 30.38C273.287 30.34 273.377 30.34 273.457 30.38C273.557 30.42 273.607 30.5 273.607 30.62L273.667 31.4C273.707 31.68 273.587 31.88 273.307 32Z" fill="white"/>
<path d="M284.844 31.67C284.524 31.57 284.394 31.39 284.454 31.13L284.574 29.75C284.614 29.59 284.674 29.48 284.754 29.42C284.854 29.36 284.964 29.37 285.084 29.45C285.784 29.83 286.484 30.11 287.184 30.29C287.904 30.45 288.724 30.53 289.644 30.53C291.104 30.53 292.294 30.13 293.214 29.33C294.154 28.53 294.624 27.4 294.624 25.94C294.624 25.36 294.394 24.78 293.934 24.2C293.494 23.62 292.874 23.07 292.074 22.55C291.374 22.11 290.584 21.65 289.704 21.17C288.824 20.69 287.984 20.17 287.184 19.61C286.384 19.03 285.714 18.39 285.174 17.69C284.634 16.97 284.364 16.14 284.364 15.2C284.364 14.24 284.564 13.4 284.964 12.68C285.364 11.94 285.894 11.33 286.554 10.85C287.234 10.35 288.004 9.97 288.864 9.71C289.724 9.45 290.604 9.32 291.504 9.32C292.284 9.32 292.974 9.37 293.574 9.47C294.174 9.55 294.824 9.7 295.524 9.92C295.824 10.02 295.944 10.2 295.884 10.46L295.644 11.63C295.584 11.97 295.414 12.06 295.134 11.9C294.574 11.64 294.024 11.47 293.484 11.39C292.964 11.29 292.294 11.24 291.474 11.24C290.814 11.24 290.184 11.32 289.584 11.48C289.004 11.64 288.494 11.88 288.054 12.2C287.634 12.52 287.294 12.92 287.034 13.4C286.774 13.88 286.644 14.45 286.644 15.11C286.644 15.63 286.814 16.12 287.154 16.58C287.514 17.04 287.944 17.47 288.444 17.87C288.964 18.27 289.514 18.64 290.094 18.98C290.694 19.3 291.234 19.6 291.714 19.88C292.374 20.26 293.014 20.65 293.634 21.05C294.254 21.45 294.804 21.9 295.284 22.4C295.764 22.9 296.154 23.45 296.454 24.05C296.754 24.65 296.904 25.34 296.904 26.12C296.904 27.12 296.694 28.01 296.274 28.79C295.874 29.57 295.334 30.23 294.654 30.77C293.974 31.31 293.184 31.72 292.284 32C291.404 32.3 290.484 32.45 289.524 32.45C288.644 32.45 287.854 32.39 287.154 32.27C286.474 32.15 285.704 31.95 284.844 31.67Z" fill="white"/>
<path d="M311.811 32.09C311.211 32.19 310.631 32.26 310.071 32.3C309.511 32.34 308.841 32.36 308.061 32.36C306.821 32.36 305.711 32.14 304.731 31.7C303.771 31.26 302.951 30.66 302.271 29.9C301.611 29.14 301.101 28.24 300.741 27.2C300.381 26.16 300.201 25.04 300.201 23.84C300.201 22.62 300.391 21.5 300.771 20.48C301.151 19.44 301.691 18.55 302.391 17.81C303.111 17.05 303.961 16.46 304.941 16.04C305.941 15.6 307.061 15.38 308.301 15.38C308.961 15.38 309.561 15.41 310.101 15.47C310.641 15.51 311.221 15.6 311.841 15.74C312.121 15.82 312.251 16.01 312.231 16.31L312.141 17.27C312.101 17.51 311.951 17.6 311.691 17.54C311.171 17.38 310.671 17.27 310.191 17.21C309.711 17.13 309.181 17.09 308.601 17.09C307.581 17.09 306.681 17.26 305.901 17.6C305.141 17.92 304.501 18.38 303.981 18.98C303.461 19.58 303.071 20.3 302.811 21.14C302.551 21.96 302.421 22.86 302.421 23.84C302.421 24.74 302.551 25.6 302.811 26.42C303.091 27.24 303.481 27.97 303.981 28.61C304.501 29.23 305.121 29.73 305.841 30.11C306.581 30.47 307.421 30.65 308.361 30.65C309.061 30.65 309.641 30.62 310.101 30.56C310.561 30.5 311.081 30.39 311.661 30.23C311.961 30.15 312.121 30.22 312.141 30.44L312.231 31.55C312.251 31.85 312.111 32.03 311.811 32.09Z" fill="white"/>
<path d="M328.773 31.55C328.773 31.83 328.633 31.97 328.353 31.97H327.153C326.873 31.97 326.733 31.83 326.733 31.55V22.31C326.733 21.35 326.643 20.54 326.463 19.88C326.303 19.2 326.063 18.66 325.743 18.26C325.423 17.84 325.033 17.54 324.573 17.36C324.113 17.18 323.603 17.09 323.043 17.09C321.403 17.09 320.143 17.48 319.263 18.26C318.403 19.04 317.973 20.12 317.973 21.5V31.55C317.973 31.83 317.833 31.97 317.553 31.97H316.353C316.073 31.97 315.933 31.83 315.933 31.55V8.51C315.933 8.23 316.073 8.09 316.353 8.09H317.553C317.833 8.09 317.973 8.23 317.973 8.51V17.21C318.533 16.57 319.223 16.11 320.043 15.83C320.883 15.53 321.923 15.38 323.163 15.38C325.103 15.38 326.523 15.95 327.423 17.09C328.323 18.23 328.773 19.96 328.773 22.28V31.55Z" fill="white"/>
<path d="M346.006 23.87C346.006 22.93 345.876 22.05 345.616 21.23C345.376 20.41 345.036 19.68 344.596 19.04C343.556 17.76 342.206 17.12 340.546 17.12C339.706 17.12 338.946 17.29 338.266 17.63C337.606 17.95 337.016 18.42 336.496 19.04C336.036 19.68 335.676 20.41 335.416 21.23C335.176 22.05 335.056 22.93 335.056 23.87C335.056 24.83 335.176 25.72 335.416 26.54C335.676 27.36 336.036 28.08 336.496 28.7C337.556 30 338.906 30.65 340.546 30.65C341.386 30.65 342.136 30.48 342.796 30.14C343.476 29.8 344.076 29.32 344.596 28.7C345.036 28.08 345.376 27.36 345.616 26.54C345.876 25.72 346.006 24.83 346.006 23.87ZM348.226 23.87C348.226 25.05 348.056 26.15 347.716 27.17C347.376 28.17 346.926 29.05 346.366 29.81C345.666 30.65 344.826 31.3 343.846 31.76C342.886 32.22 341.786 32.45 340.546 32.45C339.306 32.45 338.196 32.22 337.216 31.76C336.236 31.3 335.396 30.65 334.696 29.81C334.136 29.05 333.686 28.17 333.346 27.17C333.026 26.15 332.866 25.05 332.866 23.87C332.866 21.45 333.476 19.47 334.696 17.93C336.096 16.19 338.046 15.32 340.546 15.32C341.806 15.32 342.916 15.54 343.876 15.98C344.836 16.4 345.666 17.05 346.366 17.93C347.606 19.51 348.226 21.49 348.226 23.87Z" fill="white"/>
<path d="M364.199 23.87C364.199 22.93 364.069 22.05 363.809 21.23C363.569 20.41 363.229 19.68 362.789 19.04C361.749 17.76 360.399 17.12 358.739 17.12C357.899 17.12 357.139 17.29 356.459 17.63C355.799 17.95 355.209 18.42 354.689 19.04C354.229 19.68 353.869 20.41 353.609 21.23C353.369 22.05 353.249 22.93 353.249 23.87C353.249 24.83 353.369 25.72 353.609 26.54C353.869 27.36 354.229 28.08 354.689 28.7C355.749 30 357.099 30.65 358.739 30.65C359.579 30.65 360.329 30.48 360.989 30.14C361.669 29.8 362.269 29.32 362.789 28.7C363.229 28.08 363.569 27.36 363.809 26.54C364.069 25.72 364.199 24.83 364.199 23.87ZM366.419 23.87C366.419 25.05 366.249 26.15 365.909 27.17C365.569 28.17 365.119 29.05 364.559 29.81C363.859 30.65 363.019 31.3 362.039 31.76C361.079 32.22 359.979 32.45 358.739 32.45C357.499 32.45 356.389 32.22 355.409 31.76C354.429 31.3 353.589 30.65 352.889 29.81C352.329 29.05 351.879 28.17 351.539 27.17C351.219 26.15 351.059 25.05 351.059 23.87C351.059 21.45 351.669 19.47 352.889 17.93C354.289 16.19 356.239 15.32 358.739 15.32C359.999 15.32 361.109 15.54 362.069 15.98C363.029 16.4 363.859 17.05 364.559 17.93C365.799 19.51 366.419 21.49 366.419 23.87Z" fill="white"/>
<path d="M372.673 31.55C372.673 31.83 372.533 31.97 372.253 31.97H370.933C370.653 31.97 370.513 31.83 370.513 31.55V8.54C370.513 8.26 370.653 8.12 370.933 8.12H372.253C372.533 8.12 372.673 8.26 372.673 8.54V31.55Z" fill="white"/>
<path d="M401.366 29.81C401.486 29.77 401.596 29.77 401.696 29.81C401.796 29.83 401.846 29.9 401.846 30.02L401.906 31.19C401.926 31.45 401.786 31.63 401.486 31.73C400.826 31.95 400.146 32.11 399.446 32.21C398.746 32.31 397.866 32.36 396.806 32.36C393.326 32.36 390.556 31.3 388.496 29.18C387.476 28.14 386.716 26.93 386.216 25.55C385.736 24.17 385.496 22.61 385.496 20.87C385.496 17.45 386.526 14.68 388.586 12.56C390.686 10.44 393.426 9.38 396.806 9.38C397.286 9.38 397.716 9.39 398.096 9.41C398.496 9.43 398.876 9.46 399.236 9.5C399.616 9.54 399.986 9.59 400.346 9.65C400.706 9.71 401.086 9.79 401.486 9.89C401.786 9.95 401.926 10.14 401.906 10.46L401.846 11.66C401.806 11.94 401.656 12.03 401.396 11.93C400.616 11.67 399.876 11.5 399.176 11.42C398.476 11.32 397.686 11.27 396.806 11.27C393.986 11.27 391.736 12.17 390.056 13.97C388.496 15.71 387.716 18.01 387.716 20.87C387.716 22.31 387.906 23.61 388.286 24.77C388.666 25.93 389.246 26.94 390.026 27.8C391.646 29.6 393.906 30.49 396.806 30.47C397.646 30.45 398.476 30.39 399.296 30.29C400.136 30.19 400.826 30.03 401.366 29.81Z" fill="white"/>
<path d="M419.423 24.11C418.583 22.03 417.773 19.98 416.993 17.96C416.233 15.92 415.433 13.86 414.593 11.78C413.753 13.86 412.923 15.92 412.103 17.96C411.303 19.98 410.483 22.03 409.643 24.11H419.423ZM424.643 31.55C424.743 31.83 424.653 31.97 424.373 31.97H422.933C422.813 31.97 422.703 31.95 422.603 31.91C422.523 31.87 422.443 31.75 422.363 31.55L420.143 26.03H408.863C408.483 26.97 408.113 27.89 407.753 28.79C407.393 29.69 407.033 30.61 406.673 31.55C406.593 31.75 406.503 31.87 406.403 31.91C406.323 31.95 406.223 31.97 406.103 31.97H404.693C404.413 31.97 404.323 31.83 404.423 31.55L413.243 10.07C413.343 9.83 413.523 9.71 413.783 9.71H415.613C415.873 9.71 416.053 9.83 416.153 10.07L424.643 31.55Z" fill="white"/>
<path d="M439.45 16.04C439.45 14.62 439.08 13.53 438.34 12.77C437.6 11.99 436.51 11.6 435.07 11.6H430.57V20.57H433C433.96 20.57 434.82 20.52 435.58 20.42C436.36 20.32 437.02 20.11 437.56 19.79C438.12 19.47 438.56 19.02 438.88 18.44C439.2 17.84 439.39 17.04 439.45 16.04ZM430.57 31.55C430.57 31.83 430.43 31.97 430.15 31.97H428.8C428.52 31.97 428.38 31.83 428.38 31.55V10.61C428.38 10.17 428.42 9.91 428.5 9.83C428.6 9.75 428.86 9.71 429.28 9.71H434.62C436.82 9.71 438.54 10.24 439.78 11.3C441.06 12.4 441.7 13.98 441.7 16.04C441.7 17.08 441.51 18.01 441.13 18.83C440.77 19.63 440.26 20.31 439.6 20.87C438.94 21.41 438.16 21.82 437.26 22.1C436.36 22.38 435.4 22.5 434.38 22.46H430.57V31.55Z" fill="white"/>
<path d="M445.244 31.67C444.924 31.57 444.794 31.39 444.854 31.13L444.974 29.75C445.014 29.59 445.074 29.48 445.154 29.42C445.254 29.36 445.364 29.37 445.484 29.45C446.184 29.83 446.884 30.11 447.584 30.29C448.304 30.45 449.124 30.53 450.044 30.53C451.504 30.53 452.694 30.13 453.614 29.33C454.554 28.53 455.024 27.4 455.024 25.94C455.024 25.36 454.794 24.78 454.334 24.2C453.894 23.62 453.274 23.07 452.474 22.55C451.774 22.11 450.984 21.65 450.104 21.17C449.224 20.69 448.384 20.17 447.584 19.61C446.784 19.03 446.114 18.39 445.574 17.69C445.034 16.97 444.764 16.14 444.764 15.2C444.764 14.24 444.964 13.4 445.364 12.68C445.764 11.94 446.294 11.33 446.954 10.85C447.634 10.35 448.404 9.97 449.264 9.71C450.124 9.45 451.004 9.32 451.904 9.32C452.684 9.32 453.374 9.37 453.974 9.47C454.574 9.55 455.224 9.7 455.924 9.92C456.224 10.02 456.344 10.2 456.284 10.46L456.044 11.63C455.984 11.97 455.814 12.06 455.534 11.9C454.974 11.64 454.424 11.47 453.884 11.39C453.364 11.29 452.694 11.24 451.874 11.24C451.214 11.24 450.584 11.32 449.984 11.48C449.404 11.64 448.894 11.88 448.454 12.2C448.034 12.52 447.694 12.92 447.434 13.4C447.174 13.88 447.044 14.45 447.044 15.11C447.044 15.63 447.214 16.12 447.554 16.58C447.914 17.04 448.344 17.47 448.844 17.87C449.364 18.27 449.914 18.64 450.494 18.98C451.094 19.3 451.634 19.6 452.114 19.88C452.774 20.26 453.414 20.65 454.034 21.05C454.654 21.45 455.204 21.9 455.684 22.4C456.164 22.9 456.554 23.45 456.854 24.05C457.154 24.65 457.304 25.34 457.304 26.12C457.304 27.12 457.094 28.01 456.674 28.79C456.274 29.57 455.734 30.23 455.054 30.77C454.374 31.31 453.584 31.72 452.684 32C451.804 32.3 450.884 32.45 449.924 32.45C449.044 32.45 448.254 32.39 447.554 32.27C446.874 32.15 446.104 31.95 445.244 31.67Z" fill="white"/>
</svg>
